<svg xmlns="http://www.w3.org/2000/svg" viewBox="0 0 100 100" width="100" height="100">
  <defs>
    <linearGradient id="clockGradient" x1="0%" y1="0%" x2="100%" y2="100%">
      <stop offset="0%" style="stop-color:#3b82f6;stop-opacity:1" />
      <stop offset="100%" style="stop-color:#1d4ed8;stop-opacity:1" />
    </linearGradient>
    <linearGradient id="aiGradient" x1="0%" y1="0%" x2="100%" y2="100%">
      <stop offset="0%" style="stop-color:#10b981;stop-opacity:1" />
      <stop offset="100%" style="stop-color:#059669;stop-opacity:1" />
    </linearGradient>
  </defs>
  
  <!-- Outer time portal ring -->
  <circle cx="50" cy="50" r="45" fill="none" stroke="url(#clockGradient)" stroke-width="3" opacity="0.6">
    <animate attributeName="stroke-dasharray" values="0 283;141 142;0 283" dur="3s" repeatCount="indefinite"/>
  </circle>
  
  <!-- Clock face background -->
  <circle cx="50" cy="50" r="35" fill="url(#clockGradient)" opacity="0.1"/>
  
  <!-- Clock hour markers -->
  <g stroke="url(#clockGradient)" stroke-width="2" fill="none">
    <line x1="50" y1="20" x2="50" y2="25" />
    <line x1="75" y1="50" x2="70" y2="50" />
    <line x1="50" y1="80" x2="50" y2="75" />
    <line x1="25" y1="50" x2="30" y2="50" />
  </g>
  
  <!-- Clock hands -->
  <g stroke="url(#clockGradient)" stroke-width="2" stroke-linecap="round">
    <!-- Hour hand -->
    <line x1="50" y1="50" x2="50" y2="35">
      <animateTransform attributeName="transform" type="rotate" values="0 50 50;360 50 50" dur="12s" repeatCount="indefinite"/>
    </line>
    <!-- Minute hand -->
    <line x1="50" y1="50" x2="50" y2="25">
      <animateTransform attributeName="transform" type="rotate" values="0 50 50;360 50 50" dur="1s" repeatCount="indefinite"/>
    </line>
  </g>
  
  <!-- AI Brain/Neural network nodes -->
  <g fill="url(#aiGradient)" opacity="0.8">
    <circle cx="35" cy="35" r="3">
      <animate attributeName="opacity" values="0.8;1;0.8" dur="2s" repeatCount="indefinite"/>
    </circle>
    <circle cx="65" cy="35" r="3">
      <animate attributeName="opacity" values="0.8;1;0.8" dur="2s" begin="0.5s" repeatCount="indefinite"/>
    </circle>
    <circle cx="35" cy="65" r="3">
      <animate attributeName="opacity" values="0.8;1;0.8" dur="2s" begin="1s" repeatCount="indefinite"/>
    </circle>
    <circle cx="65" cy="65" r="3">
      <animate attributeName="opacity" values="0.8;1;0.8" dur="2s" begin="1.5s" repeatCount="indefinite"/>
    </circle>
  </g>
  
  <!-- Neural connections -->
  <g stroke="url(#aiGradient)" stroke-width="1" opacity="0.5" fill="none">
    <line x1="35" y1="35" x2="65" y2="35"/>
    <line x1="35" y1="35" x2="35" y2="65"/>
    <line x1="65" y1="35" x2="65" y2="65"/>
    <line x1="35" y1="65" x2="65" y2="65"/>
    <line x1="35" y1="35" x2="65" y2="65"/>
    <line x1="65" y1="35" x2="35" y2="65"/>
  </g>
  
  <!-- Center clock dot -->
  <circle cx="50" cy="50" r="2" fill="url(#clockGradient)"/>
  
  <!-- Time ripples -->
  <circle cx="50" cy="50" r="40" fill="none" stroke="url(#clockGradient)" stroke-width="1" opacity="0.3">
    <animate attributeName="r" values="40;48;40" dur="4s" repeatCount="indefinite"/>
    <animate attributeName="opacity" values="0.3;0;0.3" dur="4s" repeatCount="indefinite"/>
  </circle>
</svg>